<?xml version="1.0" encoding="UTF-8"?><svg xmlns="http://www.w3.org/2000/svg" width="54" height="54" viewBox="0 0 54 54"><defs><style>.cls-1{fill:#f0f0f0;}.cls-2{fill:#383838;}</style></defs><g id="Layer_1"><circle class="cls-1" cx="27" cy="27" r="23"/></g><g id="Layer_3"><path class="cls-2" d="m27,39.778c-1.768,0-3.429-.335-4.983-1.006s-2.907-1.581-4.057-2.731-2.06-2.502-2.731-4.057-1.006-3.216-1.006-4.983.335-3.429,1.006-4.983,1.581-2.907,2.731-4.057,2.502-2.06,4.057-2.731,3.216-1.006,4.983-1.006,3.429.335,4.983,1.006,2.907,1.581,4.057,2.731,2.06,2.502,2.731,4.057,1.006,3.216,1.006,4.983-.335,3.429-1.006,4.983-1.581,2.907-2.731,4.057-2.502,2.06-4.057,2.731-3.216,1.006-4.983,1.006Zm.639-1.917c2.918-.213,5.351-1.342,7.299-3.386s2.923-4.536,2.923-7.475-.974-5.431-2.923-7.475-4.382-3.173-7.299-3.386v21.722Z"/></g></svg>