<?xml version="1.0" encoding="UTF-8"?>
<svg xmlns="http://www.w3.org/2000/svg" width="72" height="72" viewBox="0 0 72 72">
    <defs>
        <style>
            .moon{
            fill:#fff175;
            }
            .background{
            fill:#181818;
            }

            .sun {
                display:none;
            }

            .moon {
                display:visible;
            }

            .light-mode .sun {
                display:visible;
            }

            .light-mode .moon {
                display: none;
            }
        </style>
    </defs>
    <circle class="background" cx="36" cy="36" r="36" />

    <path class="sun"
        d="m36,54c-5,0-9.25-1.75-12.75-5.25-3.5-3.5-5.25-7.75-5.25-12.75s1.75-9.25,5.25-12.75c3.5-3.5,7.75-5.25,12.75-5.25.267,0,.55.008.85.025s.683.042,1.15.075c-1.2,1.067-2.133,2.383-2.8,3.95-.667,1.567-1,3.217-1,4.95,0,3,1.05,5.55,3.15,7.65,2.1,2.1,4.65,3.15,7.65,3.15,1.733,0,3.383-.308,4.95-.925,1.567-.617,2.883-1.475,3.95-2.575.033.4.058.725.075.975s.025.492.025.725c0,5-1.75,9.25-5.25,12.75-3.5,3.5-7.75,5.25-12.75,5.25Zm0-3c3.633,0,6.8-1.125,9.5-3.375s4.383-4.892,5.05-7.925c-.833.367-1.728.642-2.683.825-.956.183-1.911.275-2.867.275-3.823,0-7.079-1.344-9.767-4.033-2.688-2.689-4.033-5.944-4.033-9.767,0-.8.083-1.658.25-2.575s.467-1.958.9-3.125c-3.267.9-5.975,2.725-8.125,5.475-2.15,2.75-3.225,5.825-3.225,9.225,0,4.167,1.458,7.708,4.375,10.625,2.917,2.917,6.458,4.375,10.625,4.375Z" />
    <path class="moon"
        d="m35.987,43.636c2.118,0,3.922-.741,5.413-2.224,1.491-1.482,2.236-3.282,2.236-5.4s-.741-3.922-2.224-5.413c-1.482-1.491-3.282-2.236-5.4-2.236s-3.922.741-5.413,2.224c-1.491,1.482-2.236,3.282-2.236,5.4s.741,3.922,2.224,5.413c1.482,1.491,3.282,2.236,5.4,2.236Zm.013,3.273c-3.018,0-5.591-1.064-7.718-3.191s-3.191-4.7-3.191-7.718,1.064-5.591,3.191-7.718,4.7-3.191,7.718-3.191,5.591,1.064,7.718,3.191,3.191,4.7,3.191,7.718-1.064,5.591-3.191,7.718-4.7,3.191-7.718,3.191Zm-22.364-9.273c-.464,0-.852-.158-1.166-.473-.314-.315-.47-.706-.47-1.173s.157-.854.47-1.163.702-.464,1.166-.464h5.455c.464,0,.852.158,1.166.473.314.315.47.706.47,1.173s-.157.854-.47,1.163-.702.464-1.166.464h-5.455Zm39.273,0c-.464,0-.852-.158-1.166-.473-.314-.315-.47-.706-.47-1.173s.157-.854.47-1.163.702-.464,1.166-.464h5.455c.464,0,.852.158,1.166.473.314.315.47.706.47,1.173s-.157.854-.47,1.163-.702.464-1.166.464h-5.455Zm-16.919-16.909c-.466,0-.854-.157-1.163-.47s-.464-.702-.464-1.166v-5.455c0-.464.158-.852.473-1.166.315-.314.706-.47,1.173-.47s.854.157,1.163.47.464.702.464,1.166v5.455c0,.464-.158.852-.473,1.166-.315.314-.706.47-1.173.47Zm0,39.273c-.466,0-.854-.157-1.163-.47-.309-.314-.464-.703-.464-1.166v-5.455c0-.464.158-.852.473-1.166.315-.314.706-.47,1.173-.47s.854.157,1.163.47.464.702.464,1.166v5.455c0,.464-.158.852-.473,1.166-.315.313-.706.47-1.173.47Zm-13.081-34.8l-3.109-3.055c-.327-.327-.484-.72-.471-1.178.013-.458.168-.849.465-1.173.323-.324.714-.485,1.173-.485s.851.164,1.178.491l3.055,3.109c.291.327.436.709.436,1.145s-.145.809-.436,1.118-.664.464-1.118.464-.845-.145-1.173-.436Zm26.945,27l-3.055-3.109c-.291-.327-.436-.716-.436-1.166s.155-.825.464-1.125c.309-.327.682-.491,1.118-.491s.818.164,1.145.491l3.109,3.055c.327.327.484.72.471,1.178-.013.458-.168.849-.465,1.173-.323.324-.714.485-1.173.485s-.851-.164-1.178-.491Zm-3.055-27c-.327-.327-.491-.709-.491-1.145s.164-.818.491-1.145l3.055-3.109c.327-.327.72-.484,1.178-.471.458.013.849.168,1.173.465.324.323.485.714.485,1.173s-.164.851-.491,1.178l-3.109,3.055c-.291.291-.661.436-1.111.436s-.843-.145-1.18-.436Zm-27.006,27.006c-.324-.323-.485-.714-.485-1.173s.164-.851.491-1.178l3.109-3.055c.32-.327.7-.491,1.14-.491s.817.164,1.13.491c.341.327.512.709.512,1.145s-.164.818-.491,1.145l-3.055,3.109c-.327.327-.72.484-1.178.471-.458-.013-.849-.168-1.173-.465Z" />

</svg>